<?xml version="1.0" encoding="utf-8"?>
<!-- Generator: Adobe Illustrator 24.0.0, SVG Export Plug-In . SVG Version: 6.00 Build 0)  -->
<svg version="1.1" id="Layer_1" xmlns="http://www.w3.org/2000/svg" xmlns:xlink="http://www.w3.org/1999/xlink" x="0px" y="0px"
	 viewBox="0 0 144 43" style="enable-background:new 0 0 144 43;" xml:space="preserve">
<style type="text/css">
	.st0{fill:#F58220;}
	.st1{fill:#CF4520;}
</style>
<title>social_icons</title>
<path class="st0" d="M48,17.8c6,3.8,13.9,2.1,17.7-3.9c1.4-2.2,2.1-4.9,2-7.6c0.9-0.7,1.6-1.5,2.2-2.4c-0.8,0.4-1.7,0.6-2.6,0.7
	c0.9-0.6,1.6-1.5,2-2.5c-0.9,0.5-1.9,0.9-2.9,1.1C64.7,1.4,61.8,1.3,60,3c-1.2,1.1-1.7,2.8-1.3,4.3c-3.6-0.2-7-1.9-9.3-4.7
	c-1.2,2.1-0.6,4.7,1.4,6.1c-0.7,0-1.4-0.2-2-0.6c0,2.2,1.5,4.1,3.6,4.5c-0.7,0.2-1.4,0.2-2,0.1c0.6,1.8,2.3,3.1,4.2,3.1
	C52.8,17.4,50.4,18.1,48,17.8z"/>
<g>
	<polygon class="st0" points="46,10 44,10 44,8 42,8 42,10 40,10 40,12 42,12 42,14 44,14 44,12 46,12 	"/>
	<path class="st0" d="M31,10v2h4c-0.4,2-2.1,3.3-4,3.1c-2.4,0-4.4-2-4.4-4.4s2-4.4,4.4-4.4c1,0,2,0.4,2.8,1.1l1.9-1.8
		c-1.3-1.2-3-1.8-4.7-1.8c-3.9,0-7,3.1-7,7s3.2,7,7.1,7c3.6,0.1,6.8-2.6,6.8-6.2c0-0.2,0-0.4,0-0.7c0-0.4-0.3-1-0.4-1L31,10L31,10
		L31,10z"/>
</g>
<path class="st0" d="M17.5,0H3.6C1.6,0,0,1.9,0,3.8v13.9c0,2,1.7,3.3,3.6,3.3H12v-8h-2v-3h2V7.5C12,5.2,13,4,15.7,4H18v3h-1.8
	C15.5,7,15,7.5,15,8.2V10h3.2l-0.3,3H15v8h2.3c2,0,3.7-1.2,3.7-3.1V4C21,1.9,19.4,0,17.5,0z"/>
<path class="st0" d="M89.5,0H75.6C73.7,0,72,1.9,72,3.8v13.9c0,2,1.7,3.3,3.6,3.3h13.9c2,0,3.5-1.4,3.5-3.3V3.8
	C93,1.9,91.4,0,89.5,0z M78,18h-3V9h3V18z M76.5,7.8c-1,0-1.8-0.8-1.8-1.8s0.8-1.8,1.8-1.8S78.3,5,78.3,6l0,0
	C78.3,7,77.5,7.8,76.5,7.8L76.5,7.8z M89,18h-3v-4.8c0-1.4-0.8-2.2-1.9-2.2C83,11,82,11.8,82,13.2V18h-3V9h3v1c1-1,2-1.6,3.2-1.6
	c2,0,3.8,1,3.8,3.6V18z"/>
<path class="st1" d="M89.5,22H75.6c-1.9,0-3.6,1.9-3.6,3.8v13.9c0,2,1.7,3.3,3.6,3.3h13.9c2,0,3.5-1.4,3.5-3.3V25.8
	C93,23.9,91.4,22,89.5,22z M78,40h-3v-9h3V40z M76.5,29.8c-1,0-1.8-0.8-1.8-1.8s0.8-1.8,1.8-1.8s1.8,0.8,1.8,1.8l0,0
	C78.3,29,77.5,29.8,76.5,29.8L76.5,29.8z M89,40h-3v-4.8c0-1.4-0.8-2.2-1.9-2.2C83,33,82,33.8,82,35.2V40h-3v-9h3v1
	c1-1,2-1.6,3.2-1.6c2,0,3.8,1,3.8,3.6V40z"/>
<path class="st1" d="M48,39.9c6,3.8,13.9,2.1,17.7-3.9c1.4-2.2,2.1-4.9,2-7.6c0.9-0.7,1.6-1.5,2.2-2.4c-0.8,0.4-1.7,0.6-2.6,0.7
	c0.9-0.6,1.6-1.5,2-2.5c-0.9,0.5-1.9,0.9-2.9,1.1c-1.7-1.8-4.6-1.9-6.4-0.2c-1.2,1.1-1.7,2.8-1.3,4.3c-3.6-0.2-7-1.9-9.3-4.7
	c-1.2,2.1-0.6,4.7,1.4,6.1c-0.7,0-1.4-0.2-2-0.6c0,2.2,1.5,4.1,3.6,4.5c-0.7,0.2-1.4,0.2-2,0.1c0.6,1.8,2.3,3.1,4.2,3.1
	C52.8,39.5,50.4,40.2,48,39.9z"/>
<g>
	<polyline class="st1" points="46,32 44,32 44,30 42,30 42,32 40,32 40,34 42,34 42,36 44,36 44,34 46,34 	"/>
	<path class="st1" d="M31,32.1v2h4c-0.4,2-2.1,3.3-4,3.1c-2.4,0-4.4-2-4.4-4.4s2-4.4,4.4-4.4c1,0,2,0.4,2.8,1.1l1.9-1.8
		c-1.3-1.2-3-1.8-4.7-1.8c-3.9,0-7,3.1-7,7s3.2,7,7.1,7c3.6,0.1,6.8-2.6,6.8-6.2c0-0.2,0-0.4,0-0.7c0-0.4-0.3-1-0.4-1L31,32.1
		L31,32.1L31,32.1z"/>
</g>
<path class="st1" d="M17.5,22H3.6c-2,0-3.6,1.9-3.6,3.8v13.9c0,2,1.7,3.3,3.6,3.3H12v-8h-2v-3h2v-2.5c0-2.3,1-3.5,3.7-3.5H18v3h-1.8
	c-0.7,0-1.2,0.5-1.2,1.2V32h3.2l-0.3,3H15v8h2.3c2,0,3.7-1.2,3.7-3.1V26C21,23.9,19.4,22,17.5,22z"/>
<g>
	<path id="u_2_" class="st0" d="M110.9,8h-1.1V7.3c-0.4,0.5-0.8,0.8-1.2,0.8c-0.3,0-0.6-0.3-0.7-0.6c-0.1-0.2-0.1-0.5-0.1-0.9V2h1.1
		v4.4c0,0.2,0,0.3,0,0.4c0,0.2,0.1,0.2,0.2,0.2c0.2,0,0.4-0.2,0.6-0.5V2h1.1L110.9,8L110.9,8z"/>
	<path id="o_2_" class="st0" d="M106.9,3.9c0-0.6-0.1-1.1-0.3-1.4c-0.3-0.4-0.8-0.6-1.2-0.6c-0.5,0-0.9,0.2-1.2,0.6
		c-0.2,0.3-0.3,0.8-0.3,1.4V6c0,0.6,0.1,1.1,0.3,1.4c0.3,0.4,0.8,0.7,1.2,0.7c0.5,0,1-0.3,1.2-0.7c0.2-0.3,0.3-0.7,0.3-1.4V3.9z
		 M105.8,6.1c0.1,0.6-0.1,0.9-0.5,0.9s-0.5-0.3-0.5-0.9V3.8c-0.1-0.6,0.1-0.9,0.5-0.9c0.3,0,0.5,0.3,0.5,0.9V6.1z"/>
	<path id="y_2_" class="st0" d="M102,4.7V8h-1.1V4.7c0,0-1.2-3.9-1.5-4.7h1.2l0.8,3.1l0.8-3.1h1.2L102,4.7z"/>
	<g>
		<path class="st0" d="M111.9,14.5c0-0.5-0.1-0.7-0.5-0.7s-0.5,0.1-0.5,0.7v0.6h1V14.5z"/>
		<path class="st0" d="M114.2,11.5c0,0-0.2-1.2-0.7-1.7c-0.7-0.7-1.4-0.7-1.7-0.7c-2.4-0.2-6.1-0.2-6.1-0.2l0,0c0,0-3.7,0-6.1,0.2
			c-0.3,0-1.1,0-1.7,0.7c-0.5,0.5-0.7,1.7-0.7,1.7S97,12.9,97,14.3v1.3c0,1.4,0.2,2.8,0.2,2.8s0.2,1.2,0.7,1.7
			c0.7,0.7,1.5,0.7,1.9,0.7c1.4,0.1,5.9,0.2,5.9,0.2s3.7,0,6.1-0.2c0.3,0,1.1,0,1.7-0.7c0.5-0.5,0.7-1.7,0.7-1.7s0.2-1.4,0.2-2.8
			v-1.3C114.4,12.9,114.2,11.5,114.2,11.5z M100.9,19h-1.2v-7h-1.2v-1h3.7v1h-1.3V19z M105,19h-1.1v-0.6c-0.4,0.5-0.8,0.6-1.2,0.6
			c-0.3,0-0.6-0.1-0.7-0.4c-0.1-0.2-0.1-0.5-0.1-0.9v-4.9h1v4.6c0.1,0.2,0.1,0.3,0.1,0.4c0,0.2,0.1,0.2,0.2,0.2
			c0.2,0,0.4-0.2,0.6-0.5v-4.7h1.1L105,19L105,19z M109,17c0,0.5,0,1.2-0.1,1.5c-0.1,0.4-0.6,0.6-1,0.6s-0.6-0.2-1-0.6v0.6h-1v-8h1
			v2.5c0.3-0.4,0.7-0.7,1.1-0.7c0.4,0,0.7,0.2,0.8,0.7c0.1,0.2,0.1,0.6,0.1,1.2L109,17L109,17z M111.4,18c0.3,0,0.4-0.1,0.5-0.4
			c0-0.1,0-0.5,0-0.9h1.1v0.2c0,0.3,0,0.8,0,0.9c0,0.2-0.1,0.4-0.2,0.6c-0.3,0.4-0.7,0.6-1.3,0.6s-1-0.2-1.3-0.6
			c-0.2-0.3-0.4-0.7-0.4-1.3v-2.3c0-0.6,0.1-1.1,0.4-1.4c0.3-0.4,0.7-0.6,1.3-0.6c0.5,0,0.9,0.2,1.2,0.6c0.2,0.3,0.3,0.7,0.3,1.4V16
			h-2.1v1.3C110.9,17.8,111.1,18,111.4,18z"/>
		<path class="st0" d="M107.5,13.8c-0.2,0-0.4,0.1-0.5,0.3v3.5c0.2,0.2,0.4,0.3,0.6,0.3c0.3,0,0.4-0.2,0.4-0.8v-2.5
			C107.9,13.9,107.8,13.8,107.5,13.8z"/>
	</g>
</g>
<g>
	<path id="u_1_" class="st1" d="M110.9,30h-1.1v-0.7c-0.4,0.5-0.8,0.8-1.2,0.8c-0.3,0-0.6-0.3-0.7-0.6c-0.1-0.2-0.1-0.5-0.1-0.9V24
		h1.1v4.4c0,0.2,0,0.3,0,0.4c0,0.2,0.1,0.2,0.2,0.2c0.2,0,0.4-0.2,0.6-0.5V24h1.1L110.9,30L110.9,30z"/>
	<path id="o_1_" class="st1" d="M106.9,25.9c0-0.6-0.1-1.1-0.3-1.4c-0.3-0.4-0.8-0.6-1.2-0.6c-0.5,0-0.9,0.2-1.2,0.6
		c-0.2,0.3-0.3,0.8-0.3,1.4V28c0,0.6,0.1,1.1,0.3,1.4c0.3,0.4,0.8,0.7,1.2,0.7c0.5,0,1-0.3,1.2-0.7c0.2-0.3,0.3-0.7,0.3-1.4V25.9z
		 M105.8,28.1c0.1,0.6-0.1,0.9-0.5,0.9s-0.5-0.3-0.5-0.9v-2.3c-0.1-0.6,0.1-0.9,0.5-0.9c0.3,0,0.5,0.3,0.5,0.9V28.1z"/>
	<path id="y_1_" class="st1" d="M102,26.7V30h-1.1v-3.3c0,0-1.2-3.9-1.5-4.7h1.2l0.8,3.1l0.8-3.1h1.2L102,26.7z"/>
	<g>
		<path class="st1" d="M111.9,36.4c0-0.5-0.1-0.7-0.5-0.7s-0.5,0.1-0.5,0.7V37h1V36.4z"/>
		<path class="st1" d="M114.2,33.4c0,0-0.2-1.2-0.7-1.7c-0.7-0.7-1.4-0.7-1.7-0.7c-2.4-0.2-6.1-0.2-6.1-0.2l0,0c0,0-3.7,0-6.1,0.2
			c-0.3,0-1.1,0-1.7,0.7c-0.5,0.5-0.7,1.7-0.7,1.7S97,34.8,97,36.2v1.3c0,1.4,0.2,2.8,0.2,2.8s0.2,1.2,0.7,1.7
			c0.7,0.7,1.5,0.7,1.9,0.7c1.4,0.1,5.9,0.2,5.9,0.2s3.7,0,6.1-0.2c0.3,0,1.1,0,1.7-0.7c0.5-0.5,0.7-1.7,0.7-1.7s0.2-1.4,0.2-2.8
			v-1.3C114.4,34.8,114.2,33.4,114.2,33.4z M100.9,41h-1.2v-7h-1.2v-1h3.7v1h-1.3V41z M105,41h-1.1v-0.6c-0.4,0.5-0.8,0.6-1.2,0.6
			c-0.3,0-0.6-0.1-0.7-0.4c-0.1-0.2-0.1-0.5-0.1-0.9v-4.9h1v4.6c0.1,0.2,0.1,0.3,0.1,0.4c0,0.2,0.1,0.2,0.2,0.2
			c0.2,0,0.4-0.2,0.6-0.5v-4.7h1.1L105,41L105,41z M109,38.9c0,0.5,0,1.2-0.1,1.5c-0.1,0.4-0.6,0.6-1,0.6s-0.6-0.2-1-0.6V41h-1v-8h1
			v2.5c0.3-0.4,0.7-0.7,1.1-0.7c0.4,0,0.7,0.2,0.8,0.7c0.1,0.2,0.1,0.6,0.1,1.2L109,38.9L109,38.9z M111.4,40c0.3,0,0.4-0.1,0.5-0.4
			c0-0.1,0-0.5,0-0.9h1.1v0.2c0,0.3,0,0.8,0,0.9c0,0.2-0.1,0.4-0.2,0.6c-0.3,0.4-0.7,0.6-1.3,0.6s-1-0.2-1.3-0.6
			c-0.2-0.3-0.4-0.7-0.4-1.3v-2.3c0-0.6,0.1-1.1,0.4-1.4c0.3-0.4,0.7-0.6,1.3-0.6c0.5,0,0.9,0.2,1.2,0.6c0.2,0.3,0.3,0.7,0.3,1.4V38
			h-2.1v1.3C110.9,39.7,111.1,40,111.4,40z"/>
		<path class="st1" d="M107.5,35.7c-0.2,0-0.4,0.1-0.5,0.3v3.5c0.2,0.2,0.4,0.3,0.6,0.3c0.3,0,0.4-0.2,0.4-0.8v-2.5
			C107.9,35.9,107.8,35.7,107.5,35.7z"/>
	</g>
</g>
<path class="st0" d="M130.5,5.2c-3,0-5.4,2.4-5.4,5.4s2.4,5.4,5.4,5.4c3,0,5.4-2.4,5.4-5.4S133.5,5.2,130.5,5.2z M130.5,14
	c-1.9,0-3.5-1.6-3.5-3.5s1.6-3.5,3.5-3.5c1.9,0,3.5,1.6,3.5,3.5S132.4,14,130.5,14L130.5,14z M137.4,4.9c0,0.7-0.6,1.3-1.3,1.3
	c-0.7,0-1.3-0.6-1.3-1.3s0.6-1.3,1.3-1.3S137.4,4.2,137.4,4.9z M140.9,6.2c-0.1-1.7-0.5-3.2-1.7-4.4c-1.2-1.2-2.7-1.6-4.4-1.7
	c-1.7-0.1-6.9-0.1-8.7,0c-1.7,0.1-3.2,0.5-4.4,1.7s-1.6,2.7-1.7,4.4c-0.1,1.7-0.1,6.9,0,8.7c0.1,1.7,0.5,3.2,1.7,4.4
	c1.2,1.2,2.7,1.6,4.4,1.7c1.7,0.1,6.9,0.1,8.7,0c1.7-0.1,3.2-0.5,4.4-1.7c1.2-1.2,1.6-2.7,1.7-4.4C141,13.1,141,8,140.9,6.2
	L140.9,6.2z M138.7,16.7c-0.4,0.9-1.1,1.6-2,2c-1.4,0.5-4.7,0.4-6.2,0.4c-1.5,0-4.8,0.1-6.2-0.4c-0.9-0.4-1.6-1.1-2-2
	c-0.5-1.4-0.4-4.7-0.4-6.2s-0.1-4.8,0.4-6.2c0.4-0.9,1.1-1.6,2-2c1.4-0.5,4.7-0.4,6.2-0.4c1.5,0,4.8-0.1,6.2,0.4
	c0.9,0.4,1.6,1.1,2,2c0.5,1.4,0.4,4.7,0.4,6.2S139.2,15.4,138.7,16.7z"/>
<path class="st1" d="M130.5,27.1c-3,0-5.4,2.4-5.4,5.4s2.4,5.4,5.4,5.4c3,0,5.4-2.4,5.4-5.4S133.5,27.1,130.5,27.1z M130.5,36
	c-1.9,0-3.5-1.6-3.5-3.5s1.6-3.5,3.5-3.5c1.9,0,3.5,1.6,3.5,3.5S132.4,36,130.5,36L130.5,36z M137.4,26.9c0,0.7-0.6,1.3-1.3,1.3
	c-0.7,0-1.3-0.6-1.3-1.3s0.6-1.3,1.3-1.3S137.4,26.2,137.4,26.9z M140.9,28.2c-0.1-1.7-0.5-3.2-1.7-4.4c-1.2-1.2-2.7-1.6-4.4-1.7
	c-1.7-0.1-6.9-0.1-8.7,0c-1.7,0.1-3.2,0.5-4.4,1.7s-1.6,2.7-1.7,4.4c-0.1,1.7-0.1,6.9,0,8.7c0.1,1.7,0.5,3.2,1.7,4.4
	c1.2,1.2,2.7,1.6,4.4,1.7c1.7,0.1,6.9,0.1,8.7,0c1.7-0.1,3.2-0.5,4.4-1.7c1.2-1.2,1.6-2.7,1.7-4.4C141,35.1,141,29.9,140.9,28.2
	L140.9,28.2z M138.7,38.7c-0.4,0.9-1.1,1.6-2,2c-1.4,0.5-4.7,0.4-6.2,0.4c-1.5,0-4.8,0.1-6.2-0.4c-0.9-0.4-1.6-1.1-2-2
	c-0.5-1.4-0.4-4.7-0.4-6.2c0-1.5-0.1-4.8,0.4-6.2c0.4-0.9,1.1-1.6,2-2c1.4-0.5,4.7-0.4,6.2-0.4c1.5,0,4.8-0.1,6.2,0.4
	c0.9,0.4,1.6,1.1,2,2c0.5,1.4,0.4,4.7,0.4,6.2C139.1,34,139.2,37.3,138.7,38.7z"/>
</svg>
